<svg width="54.399994" height="38.399994" viewBox="0 0 54.4 38.4" fill="none" xmlns="http://www.w3.org/2000/svg" xmlns:xlink="http://www.w3.org/1999/xlink">
	<desc>
			Created with Pixso.
	</desc>
	<defs/>
	<path id="Vector" d="M44.48 16C44.48 15.04 44.8 14.08 44.8 12.8C44.8 5.76 39.04 0 32 0C26.88 0 22.72 2.88 20.48 7.04C19.84 6.72 18.56 6.39 17.6 6.39C13.12 6.39 9.59 9.92 9.59 14.4C9.59 15.04 9.59 15.68 9.91 16C4.15 16.95 0 21.44 0 27.2C0 33.28 5.12 38.4 11.2 38.4L43.2 38.4C49.28 38.4 54.4 33.28 54.4 27.2C54.4 21.44 50.24 16.64 44.48 16Z" fill="#FFFFFF" fill-opacity="1.000000" fill-rule="nonzero"/>
</svg>
